<svg xmlns="http://www.w3.org/2000/svg" version="1.1" xmlns:xlink="http://www.w3.org/1999/xlink" xmlns:svgjs="http://svgjs.dev/svgjs" width="100%" height="100%" viewBox="0 0 1000 600"><rect width="1000" height="600" x="0" y="0" fill="#2b3252"/><g><rect width="333.3333333333333" height="333.3333333333333" rx="13.333333333333334" ry="13.333333333333334" y="570.1334770426851" fill="#fad744" transform="matrix(0.22813915240660815,0,0,0.22813915240660815,0,131.90705099126873)" x="547.9111938476564"/><path d="M670.956397581426 811.8001104545544L653.9610135572277 811.8001104545544L653.9610135572277 661.8001099743155L670.956397581426 661.8001099743155L670.956397581426 728.3968370024703L758.1993689056438 728.3968370024703L758.1993689056438 661.8001099743155L775.1947529298421 661.8001099743155L775.1947529298421 811.8001104545544L758.1993689056438 811.8001104545544L758.1993689056438 744.9515999593746L670.956397581426 744.9515999593746L670.956397581426 811.8001104545544Z " fill="#2b3252" transform="matrix(0.22813915240660815,0,0,0.22813915240660815,0,131.90705099126873)"/><path d="M981.1694402599585 810.0180446078207L964.5778806169521 810.0180446078207L964.5778806169521 663.5821682030656L981.1694402599585 663.5821682030656L981.1694402599585 728.5965019152901L1066.3394464273904 728.5965019152901L1066.3394464273904 663.5821682030656L1082.9310060703967 663.5821682030656L1082.9310060703967 810.0180446078207L1066.3394464273904 810.0180446078207L1066.3394464273904 744.7579100119962L981.1694402599585 744.7579100119962L981.1694402599585 810.0180446078207ZM1119.8933139417607 810.0180446078207L1101.5196978926538 810.0180446078207L1163.6765963330272 663.5821682030656L1184.477496107685 663.5821682030656L1246.6343945480583 810.0180446078207L1228.2915036094016 810.0180446078207L1210.3480391065948 767.5559419659048L1137.8060533341175 767.5559419659048L1119.8933139417607 810.0180446078207ZM1174.092408775581 680.8189551655221L1144.2276014181698 752.285562072249L1203.9572161329922 752.285562072249L1174.092408775581 680.8189551655221ZM1281.8146460133216 810.0180446078207L1265.2230863703155 810.0180446078207L1265.2230863703155 663.5821682030656L1331.1591733960402 663.5821682030656Q1354.6024326693991 663.5821682030656 1368.090756156954 676.3023639293704Q1381.5790796445092 689.0225596556752 1381.5790796445092 710.6837625229334L1381.5790796445092 710.6837625229334Q1381.5790796445092 732.3756905006416 1368.090756156954 745.0958862269463Q1354.6024326693991 757.8160819532511 1331.1591733960402 757.8160819532511L1331.1591733960402 757.8160819532511L1281.8146460133216 757.8160819532511L1281.8146460133216 810.0180446078207ZM1281.8146460133216 679.2826996430215L1281.8146460133216 742.3306262864453L1330.0530694198399 742.3306262864453Q1347.2898563822962 742.3306262864453 1356.1386881918997 733.911946023142Q1364.987520001503 725.5239908702889 1364.987520001503 710.6837625229334L1364.987520001503 710.6837625229334Q1364.987520001503 696.0893350591779 1356.1386881918997 687.6706547958747Q1347.2898563822962 679.2826996430215 1330.0530694198399 679.2826996430215L1330.0530694198399 679.2826996430215L1281.8146460133216 679.2826996430215ZM1420.7535954682742 810.0180446078207L1404.1620358252678 810.0180446078207L1404.1620358252678 663.5821682030656L1470.0673977405424 663.5821682030656Q1493.5106570139012 663.5821682030656 1507.0297056119064 676.3023639293704Q1520.5180290994615 689.0225596556752 1520.5180290994615 710.6837625229334L1520.5180290994615 710.6837625229334Q1520.5180290994615 732.3756905006416 1507.0297056119064 745.0958862269463Q1493.5106570139012 757.8160819532511 1470.0673977405424 757.8160819532511L1470.0673977405424 757.8160819532511L1420.7535954682742 757.8160819532511L1420.7535954682742 810.0180446078207ZM1420.7535954682742 679.2826996430215L1420.7535954682742 742.3306262864453L1468.9612937643421 742.3306262864453Q1486.2288058372487 742.3306262864453 1495.0776376468518 733.911946023142Q1503.9264694564552 725.5239908702889 1503.9264694564552 710.6837625229334L1503.9264694564552 710.6837625229334Q1503.9264694564552 696.0893350591779 1495.0776376468518 687.6706547958747Q1486.2288058372487 679.2826996430215 1468.9612937643421 679.2826996430215L1468.9612937643421 679.2826996430215L1420.7535954682742 679.2826996430215ZM1603.9059788607929 810.0180446078207L1587.3144192177867 810.0180446078207L1587.3144192177867 752.070486299099L1525.8334732073135 663.5821682030656L1545.9584205520712 663.5821682030656L1595.5180237079398 734.8029742261924L1645.0469017533585 663.5821682030656L1665.202574208566 663.5821682030656L1603.9059788607929 752.070486299099L1603.9059788607929 810.0180446078207ZM1800.362335078167 810.0180446078207L1730.8928603506909 810.0180446078207L1730.8928603506909 663.5821682030656L1796.5831464928156 663.5821682030656Q1813.8506585657221 663.5821682030656 1823.9284947933259 669.5428396303679Q1833.9756059104795 675.50351105767 1838.4000218152812 684.4752433090734Q1842.8244377200829 693.4469755604769 1842.8244377200829 702.2958073700802L1842.8244377200829 702.2958073700802Q1842.8244377200829 716.4293581770855 1836.8637662927806 724.0799106791384Q1830.8723697550283 731.6997380707412 1823.1296419216255 735.2331257724926L1823.1296419216255 735.2331257724926Q1829.3361142325277 737.2302579517434 1835.6347618747802 741.562498525195Q1841.9334095170327 745.8640139881966 1846.1427496486842 753.1765902752993Q1850.3520897803357 760.4584414519521 1850.3520897803357 771.5194812139563L1850.3520897803357 771.5194812139563Q1850.3520897803357 787.8959650838124 1837.846969827181 798.9570048458165Q1825.3418498740264 810.0180446078207 1800.362335078167 810.0180446078207L1800.362335078167 810.0180446078207ZM1747.484419993697 679.2826996430215L1747.484419993697 729.0573785720403L1796.5831464928156 729.0573785720403Q1804.3258743262184 729.0573785720403 1811.0853986252207 726.3842939628893Q1817.8449229242235 723.7419344641883 1822.023537945425 718.0885141413862Q1826.2328780770765 712.465818929034 1826.2328780770765 703.6169871194306L1826.2328780770765 703.6169871194306Q1826.2328780770765 697.4105148085284 1823.4676181365755 691.8799949275262Q1820.7023581960746 686.3494750465242 1814.6187863269722 682.8160873447729Q1808.5352144578699 679.2826996430215 1798.365202898916 679.2826996430215L1798.365202898916 679.2826996430215L1747.484419993697 679.2826996430215ZM1747.484419993697 744.0819575820959L1747.484419993697 794.3175131678648L1802.1136663738178 794.3175131678648Q1817.1689704943233 794.3175131678648 1825.4647503158264 788.0188655256125Q1833.7605301373296 781.6894927729101 1833.7605301373296 770.1983014646057L1833.7605301373296 770.1983014646057Q1833.7605301373296 759.8132141325018 1825.8027265307767 751.9475858572989Q1817.8449229242235 744.0819575820959 1800.362335078167 744.0819575820959L1800.362335078167 744.0819575820959L1747.484419993697 744.0819575820959ZM1893.9202963984524 810.0180446078207L1877.328736755446 810.0180446078207L1877.328736755446 663.5821682030656L1893.9202963984524 663.5821682030656L1893.9202963984524 810.0180446078207ZM1946.3680599366219 810.0180446078207L1929.7765002936158 810.0180446078207L1929.7765002936158 663.5821682030656L1999.8912023405421 663.5821682030656Q2022.4741585213003 663.5821682030656 2035.8395815670558 675.9643877144202Q2049.235729723261 688.346607225775 2049.235729723261 709.3625827735829L2049.235729723261 709.3625827735829Q2049.235729723261 723.5268586910381 2043.7973851736085 731.9148138438914Q2038.3897657344066 740.3334941071945 2030.2168863547038 744.6350095701962Q2022.0132818645504 748.9672501436478 2013.8404024848471 750.9643823228985L2013.8404024848471 750.9643823228985L2052.338965878712 810.0180446078207L2032.6441700802545 810.0180446078207L1997.2488428418412 753.8218175947495L1946.3680599366219 753.8218175947495L1946.3680599366219 810.0180446078207ZM1946.3680599366219 679.2826996430215L1946.3680599366219 738.1212861547937L1997.033767068691 738.1212861547937Q2004.9915706752438 738.1212861547937 2013.164450054947 735.6940024292428Q2021.3680545451 733.2667187036918 2026.9907497574525 726.9373459509895Q2032.6441700802545 720.638698308737 2032.6441700802545 709.3625827735829L2032.6441700802545 709.3625827735829Q2032.6441700802545 695.4133826292776 2023.1193858407507 687.3634036913745Q2013.6253267116974 679.2826996430215 1997.8940701612912 679.2826996430215L1997.8940701612912 679.2826996430215L1946.3680599366219 679.2826996430215ZM2130.626547305342 810.0180446078207L2114.034987662335 810.0180446078207L2114.034987662335 679.2826996430215L2062.939128983966 679.2826996430215L2062.939128983966 663.5821682030656L2181.7531310941604 663.5821682030656L2181.7531310941604 679.2826996430215L2130.626547305342 679.2826996430215L2130.626547305342 810.0180446078207ZM2219.3606662849743 810.0180446078207L2202.7691066419684 810.0180446078207L2202.7691066419684 663.5821682030656L2219.3606662849743 663.5821682030656L2219.3606662849743 728.5965019152901L2304.530672452407 728.5965019152901L2304.530672452407 663.5821682030656L2321.122232095413 663.5821682030656L2321.122232095413 810.0180446078207L2304.530672452407 810.0180446078207L2304.530672452407 744.7579100119962L2219.3606662849743 744.7579100119962L2219.3606662849743 810.0180446078207ZM2418.6744577742 810.0180446078207L2356.9477108801266 810.0180446078207L2356.9477108801266 663.5821682030656L2418.6744577742 663.5821682030656Q2431.732629715455 663.5821682030656 2443.7768730118596 668.5596360959676Q2455.821116308264 673.5371039888694 2465.345900547767 683.0311631179229Q2474.870684787271 692.5559473574265 2480.401204668273 706.0442708449816Q2485.931724549275 719.5325943325367 2485.931724549275 736.8001064054432L2485.931724549275 736.8001064054432Q2485.931724549275 754.0368933678997 2480.401204668273 767.5559419659048Q2474.870684787271 781.0442654534598 2465.345900547767 790.5383245825134Q2455.821116308264 800.063108822017 2443.7768730118596 805.0405767149189Q2431.732629715455 810.0180446078207 2418.6744577742 810.0180446078207L2418.6744577742 810.0180446078207ZM2373.5392705231325 679.2826996430215L2373.5392705231325 794.3175131678648L2417.9985053442997 794.3175131678648Q2433.6990367842554 794.3175131678648 2445.22095320301 786.3597095613118Q2456.7121445113144 778.3711808443088 2463.0107921535664 765.343734013504Q2469.340164906269 752.285562072249 2469.340164906269 736.8001064054432L2469.340164906269 736.8001064054432Q2469.340164906269 721.0995749654872 2463.0107921535664 708.0414030242323Q2456.7121445113144 694.9832310829775 2445.22095320301 687.1176028077745Q2433.6990367842554 679.2826996430215 2417.9985053442997 679.2826996430215L2417.9985053442997 679.2826996430215L2373.5392705231325 679.2826996430215ZM2510.6961635719845 810.0180446078207L2492.3225475228774 810.0180446078207L2554.510171073701 663.5821682030656L2575.2803457379086 663.5821682030656L2637.467969288732 810.0180446078207L2619.094353239626 810.0180446078207L2601.1816138472686 767.5559419659048L2528.608902964341 767.5559419659048L2510.6961635719845 810.0180446078207ZM2564.895258405805 680.8189551655221L2535.030451048394 752.285562072249L2594.7600657632156 752.285562072249L2564.895258405805 680.8189551655221ZM2701.3761990247567 810.0180446078207L2684.78463938175 810.0180446078207L2684.78463938175 752.070486299099L2623.3036933712774 663.5821682030656L2643.4286407160344 663.5821682030656L2692.9882438719033 734.8029742261924L2742.547847027772 663.5821682030656L2762.672794372529 663.5821682030656L2701.3761990247567 752.070486299099L2701.3761990247567 810.0180446078207ZM2888.768647659377 811.8001010139214L2888.768647659377 811.8001010139214Q2870.6101073834197 811.8001010139214 2856.568731907765 803.7193969655684Q2842.5273564321096 795.6386929172154 2834.5695528255565 781.0442654534598Q2826.6117492190033 766.4498379897043 2826.6117492190033 746.970117964397L2826.6117492190033 746.970117964397L2826.6117492190033 663.5821682030656L2843.20330886201 663.5821682030656L2843.20330886201 747.4002695106972Q2843.20330886201 764.4527058104536 2849.717032277412 775.0528689157076Q2856.2307556928145 785.6837571314115 2866.738743466719 790.6612250243135Q2877.2467312406225 795.6386929172154 2888.768647659377 795.6386929172154L2888.768647659377 795.6386929172154Q2900.474914740831 795.6386929172154 2910.890727183385 790.6612250243135Q2921.2758145154894 785.6837571314115 2927.912438372692 775.0528689157076Q2934.549062229894 764.4527058104536 2934.549062229894 747.4002695106972L2934.549062229894 747.4002695106972L2934.549062229894 663.5821682030656L2951.1406218729 663.5821682030656L2951.1406218729 746.970117964397Q2951.1406218729 766.2040371061042 2943.1828182663476 780.8291896803098Q2935.2250146597944 795.4236171440652 2921.183639184139 803.5964965237683Q2907.111538598034 811.8001010139214 2888.768647659377 811.8001010139214ZM3001.8063290049695 810.0180446078207L2985.2147693619636 810.0180446078207L2985.2147693619636 663.5821682030656L3051.150856387688 663.5821682030656Q3074.594115661047 663.5821682030656 3088.082439148602 676.3023639293704Q3101.5707626361573 689.0225596556752 3101.5707626361573 710.6837625229334L3101.5707626361573 710.6837625229334Q3101.5707626361573 732.3756905006416 3088.082439148602 745.0958862269463Q3074.594115661047 757.8160819532511 3051.150856387688 757.8160819532511L3051.150856387688 757.8160819532511L3001.8063290049695 757.8160819532511L3001.8063290049695 810.0180446078207ZM3001.8063290049695 679.2826996430215L3001.8063290049695 742.3306262864453L3050.044752411488 742.3306262864453Q3067.281539373944 742.3306262864453 3076.130371183547 733.911946023142Q3084.9792029931505 725.5239908702889 3084.9792029931505 710.6837625229334L3084.9792029931505 710.6837625229334Q3084.9792029931505 696.0893350591779 3076.130371183547 687.6706547958747Q3067.281539373944 679.2826996430215 3050.044752411488 679.2826996430215L3050.044752411488 679.2826996430215L3001.8063290049695 679.2826996430215ZM3117.517094959713 810.0180446078207L3099.143478910606 810.0180446078207L3161.300377350979 663.5821682030656L3182.1012771256374 663.5821682030656L3244.2581755660103 810.0180446078207L3225.9152846273537 810.0180446078207L3207.971820124547 767.5559419659048L3135.4298343520695 767.5559419659048L3117.517094959713 810.0180446078207ZM3171.716189793533 680.8189551655221L3141.8513824361225 752.285562072249L3201.5809971509443 752.285562072249L3171.716189793533 680.8189551655221ZM3315.2639058159875 811.8001010139214L3315.2639058159875 811.8001010139214Q3293.6027029487295 811.8001010139214 3280.1143794611744 805.9316049179693Q3266.595330863169 800.063108822017 3259.8665316746165 789.6780214899131Q3253.1070073756136 779.2622090473592 3252.000903399414 766.2040371061042L3252.000903399414 766.2040371061042L3269.26841547232 766.2040371061042Q3269.91364279177 776.8349253218082 3276.3351908758223 783.3486487372107Q3282.7567389598753 789.8930972630632 3293.264726733779 792.9963334185144Q3303.7727145076833 796.0688444635155 3316.3700097921874 796.0688444635155L3316.3700097921874 796.0688444635155Q3334.958701614445 796.0688444635155 3345.8046656032993 789.555121048113Q3356.6506295921536 783.0413976327106 3356.6506295921536 770.1983014646057L3356.6506295921536 770.1983014646057Q3356.6506295921536 762.4555736312028 3351.212285042501 757.693181511451Q3345.8046656032993 752.9307893916992 3336.832933351895 749.8582783466982Q3327.891926210942 746.755042191247 3317.2610379952384 744.2048580238959Q3306.6608748899844 741.6546738565451 3295.9070862324807 738.797238584694Q3285.1840226854256 735.9090782023928 3276.2430155444727 731.4846622975912Q3267.2712832930692 727.0602463927895 3261.8636638538674 720.0856463206369Q3256.425319304215 713.1110462484843 3256.425319304215 702.2958073700802L3256.425319304215 702.2958073700802Q3256.425319304215 684.3523428672735 3270.251619006721 673.0762273321192Q3284.0779187092257 661.800111796965 3311.515442341086 661.800111796965L3311.515442341086 661.800111796965Q3330.9951623663937 661.800111796965 3343.5924576508987 667.6686078929172Q3356.189752935403 673.5371039888694 3362.5191256881053 683.0311631179229Q3368.8177733303582 692.5559473574265 3369.4630006498073 703.6169871194306L3369.4630006498073 703.6169871194306L3352.441289460501 703.6169871194306Q3351.1201097111507 692.5559473574265 3341.380249698497 684.9053948553736Q3331.6403896858437 677.2855674637708 3311.515442341086 677.2855674637708L3311.515442341086 677.2855674637708Q3299.1332228297315 677.2855674637708 3291.390494996329 679.7128511893217Q3283.6477671629254 682.1401349148726 3279.561327473074 686.011498831574Q3275.444162672772 689.8828627482756 3274.030807592072 694.0922028799271Q3272.5867274009215 698.3015430115787 3272.5867274009215 702.0500064864801L3272.5867274009215 702.0500064864801Q3272.5867274009215 709.3625827735829 3277.9943468401234 713.9098991201845Q3283.432691389775 718.4264903563362 3292.3736985307287 721.4068260699873Q3301.345430782132 724.4178868940885 3312.1913947709863 726.8451706196395Q3323.00663364939 729.2724543451903 3333.7604223068947 732.2527900588415Q3344.483485853949 735.2331257724926 3353.424492994902 739.7804421190942Q3362.396225246305 744.327758465696 3367.803844685507 751.3945338691987Q3373.2421892351595 758.4613092727013 3373.2421892351595 769.5223490347055L3373.2421892351595 769.5223490347055Q3373.2421892351595 789.8930972630632 3357.7567335683534 800.8312365832674Q3342.2712779015483 811.8001010139214 3315.2639058159875 811.8001010139214ZM3400.003760437119 810.0180446078207L3381.630144388012 810.0180446078207L3443.8177679388355 663.5821682030656L3464.587942603044 663.5821682030656L3526.7755661538667 810.0180446078207L3508.4019501047605 810.0180446078207L3490.4892107124033 767.5559419659048L3417.9164998294755 767.5559419659048L3400.003760437119 810.0180446078207ZM3454.20285527094 680.8189551655221L3424.3380479135285 752.285562072249L3484.067662628351 752.285562072249L3454.20285527094 680.8189551655221ZM3561.92509250868 810.0180446078207L3545.333532865674 810.0180446078207L3545.333532865674 663.5821682030656L3564.5981771178313 663.5821682030656L3655.0836273931154 786.7898611076121L3655.0836273931154 663.5821682030656L3671.6751870361213 663.5821682030656L3671.6751870361213 810.0180446078207L3652.410542783965 810.0180446078207L3561.92509250868 686.3494750465242L3561.92509250868 810.0180446078207ZM3708.6067697970357 810.0180446078207L3690.2331537479286 810.0180446078207L3752.420777298752 663.5821682030656L3773.19095196296 663.5821682030656L3835.3785755137833 810.0180446078207L3817.004959464676 810.0180446078207L3799.09222007232 767.5559419659048L3726.519509189392 767.5559419659048L3708.6067697970357 810.0180446078207ZM3762.8058646308555 680.8189551655221L3732.941057273445 752.285562072249L3792.670671988267 752.285562072249L3762.8058646308555 680.8189551655221Z " fill="#fad744" transform="matrix(0.22813915240660815,0,0,0.22813915240660815,0,131.90705099126873)"/></g></svg>